<svg width="196" height="25" viewBox="0 0 196 25" fill="none" xmlns="http://www.w3.org/2000/svg">
<path d="M16.0215 9.4834H12.8135L12.2568 6.55371C11.8857 6.31934 11.3438 6.11426 10.6309 5.93848C9.91797 5.7627 9.16113 5.6748 8.36035 5.6748C7.18848 5.6748 6.28027 5.92383 5.63574 6.42188C5.00098 6.91016 4.68359 7.54492 4.68359 8.32617C4.68359 9.04883 5.01562 9.64453 5.67969 10.1133C6.35352 10.5723 7.51074 11.0605 9.15137 11.5781C11.5049 12.2324 13.2871 13.0967 14.498 14.1709C15.7188 15.2451 16.3291 16.6562 16.3291 18.4043C16.3291 20.2305 15.6064 21.6709 14.1611 22.7256C12.7158 23.7803 10.8115 24.3076 8.44824 24.3076C6.75879 24.3076 5.23047 24.0391 3.86328 23.502C2.50586 22.9648 1.37305 22.2227 0.464844 21.2754V16.8223H3.77539L4.22949 19.8545C4.65918 20.2061 5.24023 20.499 5.97266 20.7334C6.71484 20.958 7.54004 21.0703 8.44824 21.0703C9.62012 21.0703 10.5088 20.8311 11.1143 20.3525C11.7295 19.874 12.0371 19.2344 12.0371 18.4336C12.0371 17.6133 11.7441 16.9541 11.1582 16.4561C10.582 15.958 9.56641 15.4893 8.11133 15.0498C5.58203 14.3174 3.66797 13.4482 2.36914 12.4424C1.07031 11.4365 0.420898 10.0596 0.420898 8.31152C0.420898 6.58301 1.15332 5.17188 2.61816 4.07812C4.08301 2.97461 5.92383 2.4082 8.14062 2.37891C9.78125 2.37891 11.2754 2.62793 12.623 3.12598C13.9707 3.62402 15.1035 4.28809 16.0215 5.11816V9.4834ZM19.0818 21.4365L21.1473 20.9971V4.16602L18.8621 3.72656V1.14844H25.41V10.1719C25.908 9.43945 26.5184 8.87305 27.241 8.47266C27.9637 8.0625 28.7645 7.85742 29.6434 7.85742C31.3035 7.85742 32.6023 8.40918 33.5398 9.5127C34.4871 10.6064 34.9607 12.3008 34.9607 14.5957V20.9971L37.0115 21.4365V24H28.8377V21.4365L30.6834 20.9971V14.5664C30.6834 13.3359 30.4637 12.4668 30.0242 11.959C29.5945 11.4414 28.95 11.1826 28.0906 11.1826C27.4949 11.1826 26.9725 11.29 26.5232 11.5049C26.0838 11.7197 25.7127 12.0225 25.41 12.4131V20.9971L27.2557 21.4365V24H19.0818V21.4365ZM47.0299 24.3076C44.7447 24.3076 42.9186 23.5752 41.5514 22.1104C40.1842 20.6455 39.5006 18.7852 39.5006 16.5293V15.9434C39.5006 13.5898 40.1451 11.6514 41.4342 10.1279C42.733 8.60449 44.4713 7.84766 46.649 7.85742C48.7877 7.85742 50.4479 8.50195 51.6295 9.79102C52.8111 11.0801 53.402 12.8232 53.402 15.0205V17.3496H43.9391L43.9098 17.4375C43.9879 18.4824 44.3346 19.3418 44.9498 20.0156C45.5748 20.6895 46.4195 21.0264 47.484 21.0264C48.4313 21.0264 49.2174 20.9336 49.8424 20.748C50.4674 20.5527 51.151 20.25 51.8932 19.8398L53.0504 22.4766C52.3961 22.9941 51.5465 23.4287 50.5016 23.7803C49.4664 24.1318 48.3092 24.3076 47.0299 24.3076ZM46.649 11.1533C45.858 11.1533 45.233 11.4561 44.774 12.0615C44.315 12.667 44.0318 13.4629 43.9244 14.4492L43.9684 14.5225H49.2125V14.1416C49.2125 13.2334 48.9977 12.5107 48.568 11.9736C48.148 11.4268 47.5084 11.1533 46.649 11.1533ZM56.184 3.72656V1.14844H62.7465V20.9971L64.8119 21.4365V24H56.4037V21.4365L58.4691 20.9971V4.16602L56.184 3.72656ZM66.9934 11.1533V8.15039H69.3518V7.06641C69.3518 5.07422 69.9572 3.54102 71.1682 2.4668C72.3889 1.38281 74.1027 0.84082 76.3098 0.84082C77.0715 0.84082 77.8234 0.918945 78.5656 1.0752C79.3078 1.22168 80.1672 1.43652 81.1438 1.71973L80.5285 5.08887C79.8156 4.87402 79.1662 4.70801 78.5803 4.59082C78.0041 4.47363 77.34 4.41504 76.5881 4.41504C75.6018 4.41504 74.8596 4.63965 74.3615 5.08887C73.8732 5.53809 73.6291 6.19727 73.6291 7.06641V8.15039H83.2385V20.9971L85.509 21.4365V24H76.8957V21.4365L78.9611 20.9971V11.1533H73.6291V20.9971L75.6945 21.4365V24H67.0666V21.4365L69.3518 20.9971V11.1533H66.9934ZM95.8057 24.3076C93.5205 24.3076 91.6943 23.5752 90.3271 22.1104C88.96 20.6455 88.2764 18.7852 88.2764 16.5293V15.9434C88.2764 13.5898 88.9209 11.6514 90.21 10.1279C91.5088 8.60449 93.2471 7.84766 95.4248 7.85742C97.5635 7.85742 99.2236 8.50195 100.405 9.79102C101.587 11.0801 102.178 12.8232 102.178 15.0205V17.3496H92.7148L92.6855 17.4375C92.7637 18.4824 93.1104 19.3418 93.7256 20.0156C94.3506 20.6895 95.1953 21.0264 96.2598 21.0264C97.207 21.0264 97.9932 20.9336 98.6182 20.748C99.2432 20.5527 99.9268 20.25 100.669 19.8398L101.826 22.4766C101.172 22.9941 100.322 23.4287 99.2773 23.7803C98.2422 24.1318 97.085 24.3076 95.8057 24.3076ZM95.4248 11.1533C94.6338 11.1533 94.0088 11.4561 93.5498 12.0615C93.0908 12.667 92.8076 13.4629 92.7002 14.4492L92.7441 14.5225H97.9883V14.1416C97.9883 13.2334 97.7734 12.5107 97.3438 11.9736C96.9238 11.4268 96.2842 11.1533 95.4248 11.1533Z" fill="black"/>
<path d="M114.789 2.67188C117.299 2.67188 119.257 3.16016 120.663 4.13672C122.069 5.11328 122.772 6.57324 122.772 8.5166C122.772 9.50293 122.509 10.3867 121.981 11.168C121.464 11.9395 120.707 12.5205 119.711 12.9111C120.99 13.1846 121.947 13.7705 122.582 14.6689C123.226 15.5674 123.549 16.6074 123.549 17.7891C123.549 19.8301 122.875 21.3779 121.527 22.4326C120.179 23.4775 118.27 24 115.8 24H105.311V21.4365L107.582 20.9971V5.68945L105.311 5.25V2.67188H107.582H114.789ZM111.859 14.5664V20.7188H115.8C116.932 20.7188 117.797 20.4746 118.392 19.9863C118.988 19.4883 119.286 18.7559 119.286 17.7891C119.286 16.7441 119.032 15.9482 118.524 15.4014C118.016 14.8447 117.216 14.5664 116.122 14.5664H111.859ZM111.859 11.6074H114.935C116.078 11.6074 116.957 11.373 117.572 10.9043C118.187 10.4355 118.495 9.75195 118.495 8.85352C118.495 7.86719 118.182 7.13965 117.557 6.6709C116.942 6.20215 116.019 5.96777 114.789 5.96777H111.859V11.6074ZM126.448 15.9287C126.448 13.5654 127.107 11.6318 128.425 10.1279C129.754 8.61426 131.585 7.85742 133.919 7.85742C136.262 7.85742 138.093 8.60938 139.412 10.1133C140.74 11.6172 141.404 13.5557 141.404 15.9287V16.2363C141.404 18.6191 140.74 20.5625 139.412 22.0664C138.093 23.5605 136.272 24.3076 133.948 24.3076C131.594 24.3076 129.754 23.5605 128.425 22.0664C127.107 20.5625 126.448 18.6191 126.448 16.2363V15.9287ZM130.725 16.2363C130.725 17.6816 130.979 18.8438 131.487 19.7227C131.995 20.5918 132.815 21.0264 133.948 21.0264C135.051 21.0264 135.857 20.5869 136.365 19.708C136.882 18.8291 137.141 17.6719 137.141 16.2363V15.9287C137.141 14.5225 136.882 13.375 136.365 12.4863C135.847 11.5977 135.032 11.1533 133.919 11.1533C132.805 11.1533 131.995 11.5977 131.487 12.4863C130.979 13.375 130.725 14.5225 130.725 15.9287V16.2363ZM144.464 15.9287C144.464 13.5654 145.123 11.6318 146.442 10.1279C147.77 8.61426 149.601 7.85742 151.935 7.85742C154.279 7.85742 156.11 8.60938 157.428 10.1133C158.756 11.6172 159.42 13.5557 159.42 15.9287V16.2363C159.42 18.6191 158.756 20.5625 157.428 22.0664C156.11 23.5605 154.288 24.3076 151.964 24.3076C149.611 24.3076 147.77 23.5605 146.442 22.0664C145.123 20.5625 144.464 18.6191 144.464 16.2363V15.9287ZM148.742 16.2363C148.742 17.6816 148.996 18.8438 149.503 19.7227C150.011 20.5918 150.831 21.0264 151.964 21.0264C153.068 21.0264 153.873 20.5869 154.381 19.708C154.899 18.8291 155.158 17.6719 155.158 16.2363V15.9287C155.158 14.5225 154.899 13.375 154.381 12.4863C153.864 11.5977 153.048 11.1533 151.935 11.1533C150.822 11.1533 150.011 11.5977 149.503 12.4863C148.996 13.375 148.742 14.5225 148.742 15.9287V16.2363ZM161.734 3.72656V1.14844H168.281V14.3906H169.234L171.695 10.9189L170.303 10.7285V8.15039H178.096V10.7285L176.221 11.1533L173.364 15.0791L177.363 21.0996L178.989 21.4365V24H171.665V21.4365L172.544 21.29L170.113 17.3643H168.281V20.9971L170.127 21.4365V24H161.953V21.4365L164.019 20.9971V4.16602L161.734 3.72656ZM194.633 13.5996H191.762L191.308 11.6221C191.015 11.3877 190.644 11.1924 190.194 11.0361C189.755 10.8799 189.267 10.8018 188.729 10.8018C187.978 10.8018 187.382 10.9727 186.942 11.3145C186.503 11.6465 186.283 12.0664 186.283 12.5742C186.283 13.0527 186.493 13.4531 186.913 13.7754C187.333 14.0879 188.173 14.3662 189.433 14.6104C191.396 15.001 192.851 15.5771 193.798 16.3389C194.745 17.0908 195.219 18.1309 195.219 19.459C195.219 20.8848 194.604 22.0518 193.373 22.96C192.152 23.8584 190.541 24.3076 188.539 24.3076C187.318 24.3076 186.195 24.1318 185.17 23.7803C184.154 23.4189 183.251 22.9062 182.46 22.2422L182.416 18.6826H185.404L185.99 20.748C186.244 20.9629 186.591 21.124 187.03 21.2314C187.47 21.3291 187.929 21.3779 188.407 21.3779C189.276 21.3779 189.936 21.2217 190.385 20.9092C190.844 20.5967 191.073 20.1719 191.073 19.6348C191.073 19.166 190.844 18.7607 190.385 18.4189C189.926 18.0771 189.081 17.7744 187.851 17.5107C185.985 17.1299 184.574 16.5684 183.617 15.8262C182.67 15.0742 182.196 14.0537 182.196 12.7646C182.196 11.4365 182.743 10.2939 183.837 9.33691C184.931 8.37012 186.488 7.88672 188.51 7.88672C189.74 7.88672 190.902 8.05273 191.996 8.38477C193.1 8.7168 193.964 9.1416 194.589 9.65918L194.633 13.5996Z" fill="#FF9163"/>
</svg>
